<svg width="51" height="50" viewBox="0 0 51 50" fill="none" xmlns="http://www.w3.org/2000/svg">
<g clip-path="url(#clip0_203_24812)">
<path d="M45.0775 4.72797H6.18861C4.71519 4.72797 3.30211 5.19285 2.26024 6.02035C1.21837 6.84785 0.633057 7.97018 0.633057 9.14044V13.5529C0.633057 14.7232 1.21837 15.8455 2.26024 16.673C3.30211 17.5005 4.71519 17.9654 6.18861 17.9654V42.234C6.18861 43.9894 7.06659 45.6729 8.62939 46.9141C10.1922 48.1554 12.3118 48.8527 14.5219 48.8527H36.7442C38.9543 48.8527 41.0739 48.1554 42.6367 46.9141C44.1995 45.6729 45.0775 43.9894 45.0775 42.234V17.9654C46.5509 17.9654 47.964 17.5005 49.0059 16.673C50.0477 15.8455 50.6331 14.7232 50.6331 13.5529V9.14044C50.6331 7.97018 50.0477 6.84785 49.0059 6.02035C47.964 5.19285 46.5509 4.72797 45.0775 4.72797ZM39.5219 35.6153H22.8553V26.7903H39.5219V35.6153ZM39.5219 22.3779H20.0775C19.3408 22.3779 18.6343 22.6103 18.1133 23.0241C17.5924 23.4378 17.2997 23.999 17.2997 24.5841V37.8215C17.2997 38.4067 17.5924 38.9678 18.1133 39.3816C18.6343 39.7953 19.3408 40.0278 20.0775 40.0278H39.5219V42.234C39.5219 42.8191 39.2293 43.3803 38.7084 43.7941C38.1874 44.2078 37.4809 44.4402 36.7442 44.4402H14.5219C13.7852 44.4402 13.0787 44.2078 12.5578 43.7941C12.0368 43.3803 11.7442 42.8191 11.7442 42.234V17.9654H39.5219V22.3779ZM6.18861 13.5529V9.14044H45.0775V13.5529H6.18861Z" fill="white"/>
</g>
<defs>
<clipPath id="clip0_203_24812">
<rect width="50" height="50" fill="white" transform="translate(0.995361)"/>
</clipPath>
</defs>
</svg>
