<svg width="50" height="50" viewBox="0 0 50 50" fill="none" xmlns="http://www.w3.org/2000/svg">
<path d="M25 29.4188L20.1729 34.2458C20.9279 36.0263 21.0401 38.014 20.4903 39.8681C19.9406 41.7223 18.763 43.3275 17.1595 44.4086C15.556 45.4898 13.6264 45.9796 11.7014 45.794C9.77634 45.6085 7.97577 44.7592 6.60827 43.3917C5.24077 42.0242 4.39147 40.2236 4.20593 38.2986C4.0204 36.3736 4.51018 34.444 5.59133 32.8405C6.67249 31.2369 8.2777 30.0594 10.1319 29.5096C11.986 28.9598 13.9737 29.0721 15.7541 29.8271L20.5833 25L8.7708 13.1938C8.38371 12.8068 8.07664 12.3474 7.86714 11.8418C7.65764 11.3361 7.54981 10.7942 7.54981 10.2469C7.54981 9.69956 7.65764 9.15761 7.86714 8.65197C8.07664 8.14634 8.38371 7.68694 8.7708 7.3L10.2458 5.82709L25 20.5833L39.752 5.82917L41.227 7.30209C41.6141 7.68902 41.9212 8.14842 42.1307 8.65406C42.3402 9.15969 42.448 9.70165 42.448 10.249C42.448 10.7963 42.3402 11.3382 42.1307 11.8439C41.9212 12.3495 41.6141 12.8089 41.227 13.1958L29.4166 25L34.2437 29.8271C36.0242 29.0721 38.0118 28.9598 39.866 29.5096C41.7201 30.0594 43.3254 31.2369 44.4065 32.8405C45.4877 34.444 45.9775 36.3736 45.7919 38.2986C45.6064 40.2236 44.7571 42.0242 43.3896 43.3917C42.0221 44.7592 40.2215 45.6085 38.2965 45.794C36.3715 45.9796 34.4418 45.4898 32.8383 44.4086C31.2348 43.3275 30.0573 41.7223 29.5075 39.8681C28.9577 38.014 29.07 36.0263 29.825 34.2458L25 29.4167V29.4188ZM12.5 41.6667C13.605 41.6667 14.6648 41.2277 15.4462 40.4463C16.2276 39.6649 16.6666 38.6051 16.6666 37.5C16.6666 36.3949 16.2276 35.3351 15.4462 34.5537C14.6648 33.7723 13.605 33.3333 12.5 33.3333C11.3949 33.3333 10.3351 33.7723 9.55369 34.5537C8.77229 35.3351 8.3333 36.3949 8.3333 37.5C8.3333 38.6051 8.77229 39.6649 9.55369 40.4463C10.3351 41.2277 11.3949 41.6667 12.5 41.6667ZM37.5 41.6667C38.605 41.6667 39.6648 41.2277 40.4462 40.4463C41.2276 39.6649 41.6666 38.6051 41.6666 37.5C41.6666 36.3949 41.2276 35.3351 40.4462 34.5537C39.6648 33.7723 38.605 33.3333 37.5 33.3333C36.3949 33.3333 35.3351 33.7723 34.5537 34.5537C33.7723 35.3351 33.3333 36.3949 33.3333 37.5C33.3333 38.6051 33.7723 39.6649 34.5537 40.4463C35.3351 41.2277 36.3949 41.6667 37.5 41.6667Z" fill="white"/>
</svg>
