<svg width="48" height="51" viewBox="0 0 48 51" fill="none" xmlns="http://www.w3.org/2000/svg">
<path d="M1.43685 24.5254C0.964954 23.9698 0.729004 23.3096 0.729004 22.5448C0.729004 21.78 0.964954 21.1207 1.43685 20.567L7.36574 14.1688C8.08694 13.3905 8.08694 12.188 7.36574 11.4097L6.64921 10.6365C6.23258 10.1869 5.52144 10.1869 5.10481 10.6365C4.59001 11.192 3.97911 11.4698 3.27212 11.4698C2.56513 11.4698 1.95337 11.192 1.43685 10.6365C0.964954 10.1272 0.729004 9.47906 0.729004 8.69202C0.729004 7.90499 0.964954 7.25684 1.43685 6.74758L6.58486 1.19202C7.09966 0.636468 7.71142 0.35869 8.42012 0.35869C9.12883 0.35869 9.73973 0.636468 10.2528 1.19202C10.7247 1.70128 10.9607 2.34943 10.9607 3.13647C10.9607 3.9235 10.7247 4.57165 10.2528 5.08091C9.81716 5.55106 9.81716 6.27743 10.2528 6.74758L10.7589 7.29377C11.5622 8.16058 12.9332 8.16058 13.7364 7.29377L19.4549 1.12258C19.9697 0.567023 20.5814 0.289246 21.2901 0.289246C21.9988 0.289246 22.6097 0.567023 23.1228 1.12258C23.6376 1.67813 23.895 2.33832 23.895 3.10313C23.895 3.86795 23.6376 4.52721 23.1228 5.08091C22.1476 6.09439 22.1325 7.69276 23.0885 8.72443L40.3686 27.3726C41.3553 28.4374 41.8487 29.7457 41.8487 31.2976C41.8487 32.8494 41.3553 34.1568 40.3686 35.2198C39.3481 36.3605 39.3655 38.091 40.4088 39.2109L46.5271 45.7786C48.1249 47.4938 46.9086 50.2892 44.5644 50.2892C43.8176 50.2892 43.1046 49.9779 42.597 49.4301L36.7356 43.1047C35.7502 42.0413 34.0637 42.056 33.0971 43.1365C32.1104 44.2013 30.8989 44.7337 29.4626 44.7337C28.0263 44.7337 26.8139 44.2013 25.8255 43.1365L8.57972 24.5254C7.6423 23.5137 6.04223 23.5137 5.10481 24.5254C4.59001 25.0346 3.97825 25.2892 3.26954 25.2892C2.56084 25.2892 1.94994 25.0346 1.43685 24.5254ZM13.8349 15.1041C11.9229 17.1675 11.9229 20.3554 13.8349 22.4188L25.4672 34.972C27.6018 37.2756 31.2478 37.2676 33.3722 34.9547L34.9296 33.2591C35.9322 32.1676 35.9354 30.4913 34.9371 29.3959C33.8085 28.1577 31.8622 28.1497 30.7234 29.3786L29.2361 30.9837C28.7213 31.4929 28.1104 31.7596 27.4034 31.7837C26.6964 31.8078 26.1061 31.5642 25.6325 31.0531C25.1177 30.4976 24.8603 29.8374 24.8603 29.0726C24.8603 28.3078 25.1177 27.6485 25.6325 27.0948L27.4524 25.1308C28.4587 24.0448 28.4587 22.367 27.4524 21.281C26.3316 20.0715 24.4186 20.0715 23.2978 21.281L21.7715 22.9281C21.2567 23.4374 20.6449 23.692 19.9362 23.692C19.2275 23.692 18.6166 23.4374 18.1035 22.9281C17.6316 22.3726 17.3957 21.7133 17.3957 20.9504C17.3957 20.1874 17.6316 19.5272 18.1035 18.9698L19.8937 17.0379C20.9168 15.9338 20.9168 14.228 19.8937 13.1239C18.7542 11.8943 16.8093 11.8943 15.6698 13.1239L13.8349 15.1041Z" fill="white"/>
</svg>
